<?xml version="1.0" standalone="no"?>
<svg xmlns:xlink="http://www.w3.org/1999/xlink" id="wave" style="transform:rotate(180deg); transition: 0.3s" viewBox="0 0 1440 490" version="1.1" xmlns="http://www.w3.org/2000/svg"><defs><linearGradient id="sw-gradient-0" x1="0" x2="0" y1="1" y2="0"><stop stop-color="rgba(183, 201, 242, 1)" offset="0%"/><stop stop-color="rgba(183, 201, 242, 1)" offset="100%"/></linearGradient></defs><path style="transform:translate(0, 0px); opacity:1" fill="url(#sw-gradient-0)" d="M0,196L40,204.2C80,212,160,229,240,245C320,261,400,278,480,269.5C560,261,640,229,720,196C800,163,880,131,960,130.7C1040,131,1120,163,1200,212.3C1280,261,1360,327,1440,302.2C1520,278,1600,163,1680,98C1760,33,1840,16,1920,16.3C2000,16,2080,33,2160,73.5C2240,114,2320,180,2400,245C2480,310,2560,376,2640,392C2720,408,2800,376,2880,334.8C2960,294,3040,245,3120,196C3200,147,3280,98,3360,130.7C3440,163,3520,278,3600,310.3C3680,343,3760,294,3840,302.2C3920,310,4000,376,4080,375.7C4160,376,4240,310,4320,294C4400,278,4480,310,4560,334.8C4640,359,4720,376,4800,359.3C4880,343,4960,294,5040,277.7C5120,261,5200,278,5280,285.8C5360,294,5440,294,5520,310.3C5600,327,5680,359,5720,375.7L5760,392L5760,490L5720,490C5680,490,5600,490,5520,490C5440,490,5360,490,5280,490C5200,490,5120,490,5040,490C4960,490,4880,490,4800,490C4720,490,4640,490,4560,490C4480,490,4400,490,4320,490C4240,490,4160,490,4080,490C4000,490,3920,490,3840,490C3760,490,3680,490,3600,490C3520,490,3440,490,3360,490C3280,490,3200,490,3120,490C3040,490,2960,490,2880,490C2800,490,2720,490,2640,490C2560,490,2480,490,2400,490C2320,490,2240,490,2160,490C2080,490,2000,490,1920,490C1840,490,1760,490,1680,490C1600,490,1520,490,1440,490C1360,490,1280,490,1200,490C1120,490,1040,490,960,490C880,490,800,490,720,490C640,490,560,490,480,490C400,490,320,490,240,490C160,490,80,490,40,490L0,490Z"/></svg>